<svg width="28" height="25" viewBox="0 0 28 25" fill="none" xmlns="http://www.w3.org/2000/svg">
<rect width="28" height="25" rx="6" fill="#D9D9D9"/>
<path d="M12.241 1.01782C11.2627 1.16299 10.4032 1.33378 9.77236 1.53019C5.26486 2.89652 1.97337 6.44897 1.12308 10.8725C0.931072 11.8887 0.967644 14.0577 1.20536 15.1081C1.70823 17.3027 2.60424 19.0106 4.13112 20.6588C5.13685 21.7433 6.06944 22.3496 6.06944 21.9226C6.06944 21.8543 5.74029 21.4359 5.338 21.0089C3.06139 18.5751 1.95509 15.9449 1.95509 12.9134C1.95509 11.7606 2.11966 10.8298 2.52195 9.77939C3.17111 8.04586 4.03055 6.78201 5.466 5.4413C7.48661 3.55406 9.7815 2.52078 12.5518 2.23897C13.9599 2.10234 15.7245 2.26459 16.9679 2.66595C17.3519 2.7855 17.7633 2.81966 18.9611 2.83674C19.9394 2.84528 20.4331 2.81966 20.3782 2.76842C20.1862 2.58909 18.4765 1.82907 17.7999 1.61558C16.4285 1.18861 15.5325 1.05197 13.9781 1.00928C13.1736 0.992198 12.3964 1.00074 12.241 1.01782Z" fill="#465462"/>
<path d="M18.2296 3.20396C18.2205 3.26373 18.1656 3.42598 18.0925 3.57116L17.9553 3.82734L18.0102 3.56262C18.0468 3.34913 18.0193 3.28935 17.8731 3.24665C17.6811 3.20396 17.5896 3.32351 17.5896 3.62239C17.5896 3.70779 17.5531 3.78465 17.5073 3.78465C17.4708 3.78465 17.4525 3.69925 17.4708 3.58824C17.5073 3.41744 17.4799 3.39183 17.2513 3.40037C17.0228 3.41744 16.9862 3.4516 16.9405 3.79318C16.8948 4.10915 16.8856 4.12623 16.8765 3.88712C16.8582 3.58824 16.7942 3.55408 16.5473 3.72487C16.3919 3.83588 16.3919 3.85296 16.5382 4.11769C16.721 4.45927 16.6479 4.57882 16.4559 4.23724C16.1633 3.73341 16.1999 3.75049 15.5416 3.95544C15.2124 4.05791 14.9382 4.17746 14.9382 4.22016C14.9382 4.33972 15.569 5.49255 15.633 5.49255C15.7336 5.49255 16.721 4.95456 16.785 4.86063C16.8216 4.80939 16.8582 4.80085 16.8582 4.84355C16.8582 4.89479 16.9405 4.84355 17.0502 4.73253C17.1599 4.63006 17.2971 4.56174 17.3702 4.58736C17.4342 4.61298 17.5439 4.5532 17.5988 4.45927C17.6445 4.36533 17.7451 4.30556 17.7999 4.32264C17.8639 4.33972 17.9736 4.30556 18.0559 4.23724C18.1748 4.14331 18.7325 4.10915 20.4788 4.05791L22.7554 3.99813V3.61385V3.22957L20.616 3.2125C19.4457 3.20396 18.4582 3.17834 18.4308 3.15272C18.3394 3.06732 18.2296 3.10148 18.2296 3.20396Z" fill="#465462"/>
<path d="M13.8136 4.40804C13.3473 4.57029 13.2558 4.57883 12.9907 4.47636C12.497 4.27995 11.9484 4.26287 11.665 4.43366C11.5278 4.51905 10.8147 5.09974 10.0741 5.74021C8.56547 7.02114 8.49233 7.14923 8.73919 7.87509L8.86719 8.26791L7.7426 10.1039C6.17001 12.6658 6.01457 12.9647 6.14258 13.2208C6.25229 13.4429 7.38603 14.0321 7.71517 14.0321C7.81575 14.0321 7.95289 13.9467 8.02604 13.8357C8.09918 13.7332 8.63862 12.606 9.22377 11.3421C10.4215 8.77175 10.5952 8.5241 11.1804 8.59242C11.3632 8.60949 12.0855 8.83152 12.7895 9.07917C14.2707 9.60008 14.353 9.59154 14.7736 8.86568C15.057 8.38747 15.0844 8.08004 14.9199 7.098L14.8193 6.44899L15.1027 6.03909C15.2673 5.81706 15.3953 5.61211 15.3953 5.5865C15.3953 5.56088 15.2399 5.24491 15.0479 4.89479C14.6547 4.16039 14.5907 4.13477 13.8136 4.40804ZM12.7895 4.724C13.1004 4.86917 13.1095 4.88625 12.881 4.83502C12.1587 4.6813 12.113 4.69838 10.6501 6.00493C9.84549 6.71372 9.26948 7.28587 9.26948 7.3798C9.26948 7.4652 9.33349 7.69576 9.41577 7.88363C9.49806 8.0715 9.53463 8.28499 9.5072 8.36185C9.42492 8.5668 7.24888 11.9826 7.20317 11.9826C7.14831 11.9826 7.18488 11.9143 8.31861 10.0014C8.83976 9.11333 9.26948 8.34477 9.26948 8.29353C9.26948 8.23375 9.20548 8.01173 9.1232 7.80678C9.01348 7.50789 9.00434 7.3798 9.09577 7.20901C9.20548 6.9699 11.5644 4.86063 11.921 4.67276C12.2227 4.51905 12.3598 4.52759 12.7895 4.724ZM14.7644 7.85801C14.7827 8.19106 14.7279 8.37893 14.5359 8.68635C14.4079 8.89984 14.2524 9.09625 14.1976 9.13041C14.1427 9.15603 13.7038 9.07063 13.2193 8.94254C12.2501 8.67781 12.2684 8.5668 13.2375 8.78029C14.0696 8.95962 14.0787 8.95108 14.3896 8.55826C14.6456 8.22521 14.6547 8.17398 14.6181 7.55059C14.5816 7.0553 14.5907 6.96136 14.6639 7.15777C14.7096 7.2944 14.7553 7.61037 14.7644 7.85801Z" fill="#465462"/>
<path d="M21.1737 4.86063C23.6514 6.91866 24.9955 9.71963 24.9955 12.8024C24.9955 17.26 22.1886 21.1455 17.8456 22.7083C16.6022 23.1609 15.6239 23.3402 14.3621 23.3402C11.9758 23.3402 10.1747 22.6656 8.71177 21.2224C7.91633 20.4368 7.43175 19.7109 7.1026 18.7715C6.88317 18.1652 6.86488 17.9518 6.86488 16.8928C6.85574 15.7571 6.98374 15.0227 7.30375 14.2712C7.34946 14.1602 7.23975 14.0663 6.80088 13.8613C6.49002 13.7161 6.22487 13.6051 6.20659 13.6222C6.1883 13.6393 6.09687 13.8784 5.9963 14.1602C5.39286 15.851 5.35629 17.6529 5.90487 19.2412C7.54147 23.9977 13.6673 25.9618 19.2079 23.5025C21.64 22.4265 23.7794 20.4368 24.9955 18.1396C25.8915 16.4488 26.3029 14.7323 26.2938 12.7512C26.2846 9.83064 25.2332 7.23462 23.1577 4.98018L22.6091 4.38242H21.6034H20.5977L21.1737 4.86063Z" fill="#465462"/>
<path d="M12.3873 9.37809C12.5427 9.62574 12.5975 9.83923 12.5975 10.2491C12.5975 10.7444 12.5518 10.8725 12.0215 11.8375C11.3815 12.9818 11.1621 13.2636 10.8787 13.2636C10.7689 13.2636 10.3392 12.9989 9.9095 12.6658L9.13234 12.0766L8.88548 12.5633C8.75748 12.8281 8.63862 13.0928 8.63862 13.144C8.62948 13.2636 11.0341 14.2883 11.3084 14.2883C11.4181 14.2883 11.601 14.22 11.7107 14.1346C12.0215 13.9041 13.9507 10.4626 14.0056 10.0527C14.0513 9.6599 14.1061 9.71113 13.1096 9.37809C12.7804 9.26708 12.4421 9.15606 12.3507 9.12191C12.2044 9.06213 12.2135 9.09629 12.3873 9.37809Z" fill="#465462"/>
<path d="M11.2627 9.71968C10.8878 9.90755 10.7507 10.4114 10.6867 11.7863C10.6318 12.8793 10.6409 13.0159 10.7781 13.0586C10.8604 13.0928 10.9701 13.0757 11.0249 13.0245C11.0798 12.9732 11.1712 12.4096 11.2444 11.7692C11.3815 10.4028 11.4547 10.2748 12.0764 10.2748C12.497 10.2748 12.5335 10.215 12.4147 9.77946C12.369 9.61721 12.2958 9.59159 11.9301 9.59159C11.7015 9.60013 11.3998 9.65137 11.2627 9.71968Z" fill="#465462"/>
<path d="M25.9539 3.59919C26.3441 4.18095 25.6435 4.59987 25.3692 4.37925C25.0631 4.19356 24.9557 3.33469 23.5292 3.63953C23.9811 3.38143 25.6617 3.16372 25.9539 3.59919Z" fill="#FFD148"/>
<path d="M26.0345 2.21994C26.2587 1.4687 25.4109 1.38719 25.1959 1.73123C24.9378 2.05596 25.0887 2.94567 23.5292 3.31545C24.0724 3.35617 25.8666 2.78232 26.0345 2.21994Z" fill="#FFD148"/>
<path d="M27.0164 3.19794C27.407 3.59075 26.9047 3.9133 26.6558 3.76944C26.3862 3.6514 26.1838 3.05253 25.0865 3.32431C25.4122 3.12476 26.724 2.9039 27.0164 3.19794Z" fill="#FFD148"/>
<path d="M24.5025 15.3637C23.8536 18.0909 21.1283 21.8182 16.3265 22.9394C13.3416 23.6364 7.50164 22.697 7.1772 16.9394C14.899 25 17.4945 10.5152 22.4261 11.4849C23.7888 11.7528 25.0865 12.9091 24.5025 15.3637Z" fill="url(#paint0_linear_30_2440)"/>
<ellipse cx="23.0101" cy="12.8788" rx="0.778667" ry="0.727273" fill="white"/>
<ellipse cx="8.60475" cy="16.3939" rx="0.778667" ry="0.727273" fill="#FFD244"/>
<ellipse cx="21.4528" cy="12.3939" rx="0.519111" ry="0.484848" fill="white"/>
<ellipse cx="9.90253" cy="17.7273" rx="0.519111" ry="0.484848" fill="#FFD244"/>
<ellipse cx="23.7887" cy="15.4243" rx="0.519111" ry="0.484848" fill="white"/>
<ellipse cx="20.155" cy="12.8788" rx="0.389333" ry="0.363636" fill="white"/>
<ellipse cx="23.5292" cy="14.3334" rx="0.389333" ry="0.363636" fill="white"/>
<ellipse cx="10.2919" cy="16.2727" rx="0.389333" ry="0.363636" fill="#FFD244"/>
<ellipse cx="24.1781" cy="13.6061" rx="0.259556" ry="0.242424" fill="white"/>
<ellipse cx="11.0705" cy="17.1212" rx="0.259556" ry="0.242424" fill="#FFD244"/>
<defs>
<linearGradient id="paint0_linear_30_2440" x1="9.5132" y1="21.6667" x2="42.7399" y2="-0.492427" gradientUnits="userSpaceOnUse">
<stop stop-color="#FFE600"/>
<stop offset="1" stop-color="#FF5C00" stop-opacity="0"/>
</linearGradient>
</defs>
</svg>
