<svg width="27" height="24" viewBox="0 0 27 24" fill="none" xmlns="http://www.w3.org/2000/svg">
<path d="M11.241 0.0178168C10.2627 0.162989 9.40323 0.33378 8.77236 0.530189C4.26486 1.89652 0.973375 5.44897 0.123075 9.87245C-0.0689281 10.8887 -0.032356 13.0577 0.205362 14.1081C0.708227 16.3027 1.60424 18.0106 3.13112 19.6588C4.13685 20.7433 5.06944 21.3496 5.06944 20.9226C5.06944 20.8543 4.74029 20.4359 4.338 20.0089C2.06139 17.5751 0.955088 14.9449 0.955088 11.9134C0.955088 10.7606 1.11966 9.82975 1.52195 8.77939C2.17111 7.04586 3.03055 5.78201 4.466 4.4413C6.48661 2.55406 8.7815 1.52078 11.5518 1.23897C12.9599 1.10234 14.7245 1.26459 15.9679 1.66595C16.3519 1.7855 16.7633 1.81966 17.9611 1.83674C18.9394 1.84528 19.4331 1.81966 19.3782 1.76842C19.1862 1.58909 17.4765 0.829073 16.7999 0.615585C15.4285 0.188608 14.5325 0.051975 12.9781 0.00927727C12.1736 -0.00780181 11.3964 0.000737731 11.241 0.0178168Z" fill="#465462"/>
<path d="M17.2296 2.20396C17.2205 2.26373 17.1656 2.42598 17.0925 2.57116L16.9553 2.82734L17.0102 2.56262C17.0468 2.34913 17.0193 2.28935 16.8731 2.24665C16.6811 2.20396 16.5896 2.32351 16.5896 2.62239C16.5896 2.70779 16.5531 2.78465 16.5073 2.78465C16.4708 2.78465 16.4525 2.69925 16.4708 2.58824C16.5073 2.41744 16.4799 2.39183 16.2513 2.40037C16.0228 2.41744 15.9862 2.4516 15.9405 2.79318C15.8948 3.10915 15.8856 3.12623 15.8765 2.88712C15.8582 2.58824 15.7942 2.55408 15.5473 2.72487C15.3919 2.83588 15.3919 2.85296 15.5382 3.11769C15.721 3.45927 15.6479 3.57882 15.4559 3.23724C15.1633 2.73341 15.1999 2.75049 14.5416 2.95544C14.2124 3.05791 13.9382 3.17746 13.9382 3.22016C13.9382 3.33972 14.569 4.49255 14.633 4.49255C14.7336 4.49255 15.721 3.95456 15.785 3.86063C15.8216 3.80939 15.8582 3.80085 15.8582 3.84355C15.8582 3.89479 15.9405 3.84355 16.0502 3.73253C16.1599 3.63006 16.2971 3.56174 16.3702 3.58736C16.4342 3.61298 16.5439 3.5532 16.5988 3.45927C16.6445 3.36533 16.7451 3.30556 16.7999 3.32264C16.8639 3.33972 16.9736 3.30556 17.0559 3.23724C17.1748 3.14331 17.7325 3.10915 19.4788 3.05791L21.7554 2.99813V2.61385V2.22957L19.616 2.2125C18.4457 2.20396 17.4582 2.17834 17.4308 2.15272C17.3394 2.06732 17.2296 2.10148 17.2296 2.20396Z" fill="#465462"/>
<path d="M12.8136 3.40804C12.3473 3.57029 12.2558 3.57883 11.9907 3.47636C11.497 3.27995 10.9484 3.26287 10.665 3.43366C10.5278 3.51905 9.81465 4.09974 9.07407 4.74021C7.56547 6.02114 7.49233 6.14923 7.73919 6.87509L7.86719 7.26791L6.7426 9.10391C5.17001 11.6658 5.01457 11.9647 5.14258 12.2208C5.25229 12.4429 6.38603 13.0321 6.71517 13.0321C6.81575 13.0321 6.95289 12.9467 7.02604 12.8357C7.09918 12.7332 7.63862 11.606 8.22377 10.3421C9.4215 7.77175 9.59522 7.5241 10.1804 7.59242C10.3632 7.60949 11.0855 7.83152 11.7895 8.07917C13.2707 8.60008 13.353 8.59154 13.7736 7.86568C14.057 7.38747 14.0844 7.08004 13.9199 6.098L13.8193 5.44899L14.1027 5.03909C14.2673 4.81706 14.3953 4.61211 14.3953 4.5865C14.3953 4.56088 14.2399 4.24491 14.0479 3.89479C13.6547 3.16039 13.5907 3.13477 12.8136 3.40804ZM11.7895 3.724C12.1004 3.86917 12.1095 3.88625 11.881 3.83502C11.1587 3.6813 11.113 3.69838 9.65008 5.00493C8.84549 5.71372 8.26948 6.28587 8.26948 6.3798C8.26948 6.4652 8.33349 6.69576 8.41577 6.88363C8.49806 7.0715 8.53463 7.28499 8.5072 7.36185C8.42492 7.5668 6.24888 10.9826 6.20317 10.9826C6.14831 10.9826 6.18488 10.9143 7.31861 9.00144C7.83976 8.11333 8.26948 7.34477 8.26948 7.29353C8.26948 7.23375 8.20548 7.01173 8.1232 6.80678C8.01348 6.50789 8.00434 6.3798 8.09577 6.20901C8.20548 5.9699 10.5644 3.86063 10.921 3.67276C11.2227 3.51905 11.3598 3.52759 11.7895 3.724ZM13.7644 6.85801C13.7827 7.19106 13.7279 7.37893 13.5359 7.68635C13.4079 7.89984 13.2524 8.09625 13.1976 8.13041C13.1427 8.15603 12.7038 8.07063 12.2193 7.94254C11.2501 7.67781 11.2684 7.5668 12.2375 7.78029C13.0696 7.95962 13.0787 7.95108 13.3896 7.55826C13.6456 7.22521 13.6547 7.17398 13.6181 6.55059C13.5816 6.0553 13.5907 5.96136 13.6639 6.15777C13.7096 6.2944 13.7553 6.61037 13.7644 6.85801Z" fill="#465462"/>
<path d="M20.1737 3.86063C22.6514 5.91866 23.9955 8.71963 23.9955 11.8024C23.9955 16.26 21.1886 20.1455 16.8456 21.7083C15.6022 22.1609 14.6239 22.3402 13.3621 22.3402C10.9758 22.3402 9.17465 21.6656 7.71177 20.2224C6.91633 19.4368 6.43175 18.7109 6.1026 17.7715C5.88317 17.1652 5.86488 16.9518 5.86488 15.8928C5.85574 14.7571 5.98374 14.0227 6.30375 13.2712C6.34946 13.1602 6.23975 13.0663 5.80088 12.8613C5.49002 12.7161 5.22487 12.6051 5.20659 12.6222C5.1883 12.6393 5.09687 12.8784 4.9963 13.1602C4.39286 14.851 4.35629 16.6529 4.90487 18.2412C6.54147 22.9977 12.6673 24.9618 18.2079 22.5025C20.64 21.4265 22.7794 19.4368 23.9955 17.1396C24.8915 15.4488 25.3029 13.7323 25.2938 11.7512C25.2846 8.83064 24.2332 6.23462 22.1577 3.98018L21.6091 3.38242H20.6034H19.5977L20.1737 3.86063Z" fill="#465462"/>
<path d="M11.3873 8.37809C11.5427 8.62574 11.5975 8.83923 11.5975 9.24913C11.5975 9.74442 11.5518 9.87251 11.0215 10.8375C10.3815 11.9818 10.1621 12.2636 9.87866 12.2636C9.76894 12.2636 9.33922 11.9989 8.9095 11.6658L8.13234 11.0766L7.88548 11.5633C7.75748 11.8281 7.63862 12.0928 7.63862 12.144C7.62948 12.2636 10.0341 13.2883 10.3084 13.2883C10.4181 13.2883 10.601 13.22 10.7107 13.1346C11.0215 12.9041 12.9507 9.46261 13.0056 9.05272C13.0513 8.6599 13.1061 8.71113 12.1096 8.37809C11.7804 8.26708 11.4421 8.15606 11.3507 8.12191C11.2044 8.06213 11.2135 8.09629 11.3873 8.37809Z" fill="#465462"/>
<path d="M10.2627 8.71968C9.8878 8.90755 9.75065 9.41139 9.68665 10.7863C9.63179 11.8793 9.64094 12.0159 9.77808 12.0586C9.86037 12.0928 9.97009 12.0757 10.0249 12.0245C10.0798 11.9732 10.1712 11.4096 10.2444 10.7692C10.3815 9.40285 10.4547 9.27475 11.0764 9.27475C11.497 9.27475 11.5335 9.21498 11.4147 8.77946C11.369 8.61721 11.2958 8.59159 10.9301 8.59159C10.7015 8.60013 10.3998 8.65137 10.2627 8.71968Z" fill="#465462"/>
<path d="M24.9539 2.59919C25.3441 3.18095 24.6435 3.59987 24.3692 3.37925C24.0631 3.19356 23.9557 2.33469 22.5292 2.63953C22.9811 2.38143 24.6617 2.16372 24.9539 2.59919Z" fill="#FFD148"/>
<path d="M25.0345 1.21994C25.2587 0.468699 24.4109 0.387192 24.1959 0.73123C23.9378 1.05596 24.0887 1.94567 22.5292 2.31545C23.0724 2.35617 24.8666 1.78232 25.0345 1.21994Z" fill="#FFD148"/>
<path d="M26.0164 2.19794C26.407 2.59075 25.9047 2.9133 25.6558 2.76944C25.3862 2.6514 25.1838 2.05253 24.0865 2.32431C24.4122 2.12476 25.724 1.9039 26.0164 2.19794Z" fill="#FFD148"/>
<path d="M23.5025 14.3637C22.8536 17.0909 20.1283 20.8182 15.3265 21.9394C12.3416 22.6364 6.50164 21.697 6.1772 15.9394C13.899 24 16.4945 9.51517 21.4261 10.4849C22.7888 10.7528 24.0865 11.9091 23.5025 14.3637Z" fill="url(#paint0_linear_30_2440)"/>
<ellipse cx="22.0101" cy="11.8788" rx="0.778667" ry="0.727273" fill="white"/>
<ellipse cx="7.60475" cy="15.3939" rx="0.778667" ry="0.727273" fill="#FFD244"/>
<ellipse cx="20.4528" cy="11.3939" rx="0.519111" ry="0.484848" fill="white"/>
<ellipse cx="8.90253" cy="16.7273" rx="0.519111" ry="0.484848" fill="#FFD244"/>
<ellipse cx="22.7887" cy="14.4243" rx="0.519111" ry="0.484848" fill="white"/>
<ellipse cx="19.155" cy="11.8788" rx="0.389333" ry="0.363636" fill="white"/>
<ellipse cx="22.5292" cy="13.3334" rx="0.389333" ry="0.363636" fill="white"/>
<ellipse cx="9.29186" cy="15.2727" rx="0.389333" ry="0.363636" fill="#FFD244"/>
<ellipse cx="23.1781" cy="12.6061" rx="0.259556" ry="0.242424" fill="white"/>
<ellipse cx="10.0705" cy="16.1212" rx="0.259556" ry="0.242424" fill="#FFD244"/>
<defs>
<linearGradient id="paint0_linear_30_2440" x1="8.5132" y1="20.6667" x2="41.7399" y2="-1.49243" gradientUnits="userSpaceOnUse">
<stop stop-color="#FFE600"/>
<stop offset="1" stop-color="#FF5C00" stop-opacity="0"/>
</linearGradient>
</defs>
</svg>
